<svg 
    xmlns="http://www.w3.org/2000/svg" 
    version="1.1" 
    xmlnsXlink="http://www.w3.org/1999/xlink" 
    viewBox="0 0 800 800"
>
    <defs>
        <linearGradient x1="50%" y1="0%" x2="50%" y2="100%" id="wwwhirl-grad">
            <stop stop-color="hsl(206, 75%, 49%)" stop-opacity="1" offset="45%"></stop>
            <stop stop-color="hsl(331, 90%, 56%)" stop-opacity="1" offset="100%"></stop>
        </linearGradient>
    </defs>
    <g stroke-width="2" stroke="url(#wwwhirl-grad)" fill="none" stroke-linecap="round">
        <path d="M37.00000251770027 425.2880386255691C50.75000289917 405.90053808769676 75.50000358581553 329.1342859579512 103.000004348755 332.22803604378186C130.50000511169446 335.3217861296126 141.5000054168703 429.2067887342879 169.00000617980973 440.1380390375564C196.5000069427492 451.0692893408248 207.50000724792503 384.2855374880263 235.00000801086446 384.6980374994704C262.500008773804 385.11053751091447 273.5000090789798 448.9242892813155 301.0000098419193 442.118039092488C328.50001060485874 435.3117889036605 339.5000109100345 355.53428669037305 367.000011672974 352.0280365930983C394.50001243591345 348.5217864958235 405.5000127410893 415.8005383623549 433.0000135040287 425.2880386255691C460.5000142669682 434.7755388887832 471.50001457214404 388.6992876104781 499.0000153350834 397.5680378565261C526.5000160980228 406.43678810257404 537.5000164031987 467.2392897894332 565.0000171661382 467.8580398065994C592.5000179290777 468.4767898237655 603.5000182342535 409.40678818497156 631.000018997193 400.53803793892354C658.5000197601325 391.66928769287557 669.5000200653083 427.5567886885116 697.0000208282477 425.2880386255691C724.5000215911871 423.01928856262657 749.2500222778326 397.07303784279316 763.0000226593024 389.64803763679953 " transform="rotate(99, 400, 400)"></path>
        <path d="M48.00000244140632 424.5217374303133C61.33333614464971 405.7217369087401 85.3333368104878 331.2817348435323 112.00000421697456 334.2817349267621C138.6666716234613 337.28173500999185 149.33333858605602 428.32173753573767 176.00000599254278 438.92173782981615C202.66667339902952 449.52173812389464 213.33334036162427 384.7617363272415 240.000007768111 385.1617363383388C266.6666751745978 385.56173634943616 277.3333421371925 447.4417380661887 304.00000954367925 440.84173788308317C330.66667695016605 434.2417376999777 341.3333439127607 356.8817355537596 368.00001131924745 353.48173545943257C394.66667872573424 350.0817353651055 405.33334568832896 415.3217371750753 432.00001309481576 424.5217374303133C458.66668050130244 433.72173768555126 469.3333474638972 389.0417364459827 496.0000148703839 397.64173668457465C522.6666822768707 406.2417369231666 533.3333492394653 465.2017385589088 560.0000166459522 465.8017385755548C586.666684052439 466.4017385922008 597.3333510150337 409.1217370030672 624.0000184215204 400.52173676447524C650.6666858280073 391.9217365258832 661.3333527906019 426.72173749134845 688.0000201970887 424.5217374303133C714.6666876035754 422.32173736927814 738.6666882694134 397.16173667125787 752.0000219726569 389.96173647150647 " transform="rotate(96, 400, 400)"></path>
        <path d="M59.00000236511238 423.7554362350575C71.9166693901294 405.54293572978355 95.16667003516005 333.42918372911345 121.00000408519412 336.3354338097423C146.83333813522813 339.2416838903711 157.1666717552418 427.4366863371874 183.0000058052758 437.7054366220759C208.83333985530987 447.97418690696446 219.1666734753235 385.23793516645674 245.00000752535757 385.6254351772073C270.8333415753916 386.0129351879578 281.1666751954052 445.95918685106176 307.0000092454393 439.5654366736784C332.83334329547336 433.1716864962949 343.16667691548696 358.22918441714614 369.00001096552097 354.93543432576683C394.83334501555504 351.64168423438747 405.1666786355687 414.8429359877958 431.0000126856027 423.7554362350575C456.8333467356368 432.6679364823193 467.16668035565044 389.38418528148725 493.0000144056845 397.71543551262323C518.8333484557185 406.0466857437592 529.1666820757321 463.16418732838446 555.0000161257661 463.7454373445102C580.8333501758003 464.326687360636 591.1666837958139 408.83668582116286 617.000017845848 400.5054355900269C642.8333518958821 392.1741853588909 653.1666855158957 425.8866862941853 679.0000195659296 423.7554362350575C704.8333536159636 421.6241861759297 728.0833542609943 397.2504354997226 741.0000212860114 390.2754353062134 " transform="rotate(93, 400, 400)"></path>
        <path d="M70.00000228881842 422.98912741040726C82.50000263560909 405.3641269214324 105.00000325983231 335.5766249853001 130.00000395341365 338.389125063328C155.00000464699497 341.20162514135586 165.00000492442751 426.55162750924256 190.00000561800886 436.48912778494116C215.0000063115902 446.42662806063976 225.00000658902275 385.7141263762775 250.00000728260406 386.0891263866812C275.00000797618543 386.4641263970849 285.000008253618 444.4766280065404 310.0000089471993 438.289127834879C335.00000964078066 432.10162766321764 345.00000991821315 359.57662565113816 370.0000106117945 356.38912556270657C395.00001130537584 353.2016254742749 405.0000115828084 414.36412717112165 430.0000122763897 422.98912741040726C455.000012969971 431.6141276496928 465.0000132474036 389.7266264875973 490.00001394098496 397.7891267112773C515.0000146345662 405.85162693495727 525.0000149119987 461.1266284684656 550.0000156055801 461.68912848407115C575.0000162991615 462.2516284996767 585.000016576594 408.55162700986403 610.0000172701755 400.48912678618404C635.0000179637568 392.42662656250405 645.0000182411893 425.05162746762767 670.0000189347705 422.98912741040726C695.0000196283519 420.92662735318675 717.5000202525752 397.33912669879277 730.0000205993658 390.5891265115258 " transform="rotate(90, 400, 400)"></path>
        <path d="M81.00000221252448 422.2228224004542C93.08333588108879 405.18532192777855 114.83333648450457 337.72407005618396 139.0000038216332 340.4428201316109C163.1666711587618 343.1615702070379 172.83333809361326 425.666572495995 197.0000054307419 435.27282276250367C221.16667276787052 444.8790730290123 230.833339702722 386.1903214007954 255.00000703985063 386.55282141085235C279.16667437697924 386.91532142090927 288.83334131183074 442.99407297671627 313.00000864895935 437.0128228107769C337.16667598608797 431.0315726448376 346.8333429209394 360.92407069982744 371.000010258068 357.84282061434357C395.16667759519663 354.76157052885964 404.8333445300481 413.88532216914484 429.00001186717674 422.2228224004542C453.16667920430535 430.5603226317636 462.8333461391569 390.0690715084046 487.00001347628546 397.86282172462853C511.1666808134141 405.65657194085253 520.8333477482655 459.0890734232439 545.0000150853941 459.63282343832935C569.1666824225229 460.17657345341473 578.8333493573742 408.2665720132625 603.000016694503 400.4728217970384C627.1666840316316 392.6790715808145 636.8333509664831 424.21657245576733 661.0000183036116 422.2228224004542C685.1666856407402 420.2290723451411 706.9166862441559 397.4278217125602 719.0000199127203 390.9028215315355 " transform="rotate(87, 400, 400)"></path>
        <path d="M92.00000213623053 421.45652120519844C103.6666691265685 405.0065207488219 124.66666970917683 339.8715189417651 148.00000368985275 342.4965190145912C171.33333767052864 345.1215190874172 180.666671262799 424.7815212974448 204.00000524347493 434.05652155476344C227.33333922415085 443.33152181208214 236.66667281642125 386.66652024001064 260.00000679709717 387.01652024972077C283.33334077777306 387.36652025943096 292.66667437004344 441.5115217615894 316.0000083507193 435.7365216013721C339.3333423313953 429.96152144115484 348.66667592366565 362.271519563214 372.00000990434154 359.29651948067783C395.3333438850174 356.3215193981416 404.6666774772878 413.40652098186524 428.00001145796375 421.45652120519844C451.3333454386397 429.50652142853164 460.6666790309101 390.41152034390916 484.000013011586 397.9365205526771C507.33334699226185 405.4615207614451 516.6666805845323 457.0515221927196 540.0000145652082 457.57652220728477C563.3333485458841 458.10152222185 572.6666821381544 407.9815208313581 596.0000161188304 400.4565206225901C619.3333500995063 392.9315204138221 628.6666836917767 423.3815212586042 652.0000176724526 421.45652120519844C675.3333516531285 419.5315211517927 696.3333522357368 397.516520541025 708.0000192260748 391.2165203662425 " transform="rotate(84, 400, 400)"></path>
        <path d="M103.00000205993659 420.69020856585087C114.25000237204819 404.82770812577354 134.5000029338491 342.0189563832545 157.00000355807228 344.5502064534796C179.50000418229547 347.0814565237047 188.5000044319848 423.8964586548027 211.00000505620795 432.8402089029314C233.50000568043117 441.7839591510601 242.50000593012047 387.1427076351341 265.0000065543437 387.48020764449745C287.5000071785669 387.8177076538608 296.5000074282562 440.0289591023707 319.0000080524794 434.46020894787546C341.5000086767026 428.89145879338025 350.50000892639184 363.61895698250873 373.00000955061506 360.75020690292024C395.5000101748383 357.8814568233318 404.5000104245276 412.9277083504939 427.00001104875076 420.69020856585087C449.500011672974 428.4527087812079 458.5000119226633 390.75395773532193 481.00001254688647 398.0102079366339C503.50001317110963 405.2664581379459 512.5000134207988 455.0139595181034 535.0000140450221 455.52020953214844C557.5000146692455 456.02645954619345 566.5000149189347 407.696458205362 589.0000155431579 400.44020800405C611.5000161673811 393.183957802738 620.5000164170704 422.5464586173493 643.0000170412935 420.69020856585087C665.5000176655168 418.8339585143525 685.7500182273176 397.60520792539785 697.0000185394292 391.53020775685764 " transform="rotate(81, 400, 400)"></path>
        <path d="M114.00000198364263 419.9239035558979C124.83333561752788 404.6489031321197 144.33333615852135 344.16640145413834 166.0000034262918 346.6039015217625C187.6666706940623 349.0414015893867 196.3333376011705 423.01140364155515 218.000004868941 431.6239038804939C239.6666721367115 440.2364041194327 248.3333390438197 387.61890265965206 270.0000063115902 387.9439026686686C291.6666735793607 388.26890267768516 300.33334048646896 438.54640407254664 322.0000077542394 433.1839039237734C343.6666750220099 427.82140377500025 352.3333419291181 364.966402031198 374.0000091968886 362.2039019545573C395.6666764646591 359.4414018779165 404.3333433717673 412.44890334851704 426.0000106395378 419.9239035558979C447.66667790730827 427.39890376327867 456.3333448144165 391.09640275612924 478.00001208218697 398.0839029499852C499.66667934995746 405.07140314384117 508.33334625706556 452.97640447288177 530.0000135248362 453.4639044864066C551.6666807926067 453.9514044999314 560.3333476997147 407.4114032087604 582.0000149674854 400.42390301490445C603.6666822352558 393.43640282104843 612.3333491423641 421.71140360548895 634.0000164101345 419.9239035558979C655.666683677905 418.1364035063068 675.1666842188985 397.69390293916535 686.0000178527837 391.8439027768673 " transform="rotate(78, 400, 400)"></path>
        <path d="M125.00000190734869 419.15760999003663C135.41666886300757 404.4701095825576 154.1666693831936 346.313857969114 175.00000329451137 348.65760803413724C195.83333720582914 351.0013580991605 204.16667077035626 422.1263600723994 225.00000468167406 430.4076103021482C245.83333859299182 438.68886053189703 254.16667215751897 388.0951091282618 275.00000606883674 388.40760913693157C295.8333399801545 388.7201091456013 304.16667354468166 437.0638604868143 325.0000074559994 431.9076103437631C345.8333413673172 426.75136020071193 354.16667493184434 366.3138585239791 375.00000884316205 363.65760845028603C395.8333427544799 361.00135837659303 404.166676319007 411.97010979063197 425.0000102303248 419.15760999003663C445.83334414164256 426.34511018944124 454.1666777061697 391.43885922102834 475.0000116174875 398.1576094074283C495.83334552880524 404.8763595938283 504.1666790933323 450.9388608717519 525.0000130046501 451.40761088475654C545.8333469159679 451.8763608977612 554.166680480495 407.1263596562506 575.0000143918128 400.4076094698506C595.8333483031306 393.68885928345065 604.1666818676579 420.87636003772036 625.0000157789755 419.15760999003663C645.8333496902933 417.4388599423529 664.5833502104794 397.7826093970246 675.0000171661382 392.1576092409688 " transform="rotate(75, 400, 400)"></path>
        <path d="M136.00000183105476 418.3913049800836C146.00000210848728 404.2913045889037 164.00000260786584 348.46130303999786 184.00000316273093 350.7113031024202C204.00000371759597 352.96130316484255 212.000003939542 421.24130505915184 232.00000449440708 429.1913052797107C252.00000504927215 437.1413055002696 260.0000052712182 388.57130415277976 280.0000058260833 388.8713041611028C300.0000063809483 389.17130416942575 308.00000660289436 435.5813054569901 328.00000715775946 430.631305319661C348.00000771262455 425.6813051823319 356.00000793457053 367.6613035726683 376.0000084894356 365.11130350192303C396.00000904430067 362.56130343117775 404.0000092662467 411.49130478865516 424.0000098211118 418.3913049800836C444.0000103759769 425.2913051715121 452.0000105979229 391.78130424183564 472.000011152788 398.2313044207796C492.000011707653 404.6813045997236 500.00001192959905 448.90130582653023 520.0000124844642 449.35130583901474C540.0000130393292 449.8013058514992 548.0000132612753 406.84130465964904 568.0000138161404 400.39130448070506C588.0000143710055 393.9413043017611 596.0000145929514 420.04130502585997 616.0000151478165 418.3913049800836C636.0000157026815 416.7413049343072 654.00001620206 397.87130441079205 664.0000164794926 392.47130426097846 " transform="rotate(72, 400, 400)"></path>
        <path d="M146.9999864959717 417.6249999701306C156.5833200951779 404.11249959524986 173.83332057374906 350.6087481108818 192.9999877721614 352.76499817070317C212.16665497057375 354.92124823052455 219.8333218499387 420.35625004590435 238.99998904835104 427.9750002572732C258.1666562467634 435.59375046864216 265.8333231261284 389.04749917729777 284.9999903245407 389.33499918527394C304.1666575229531 389.6224991932501 311.83332440231806 434.098750427166 330.9999916007304 429.35500029555897C350.1666587991428 424.61125016395187 357.83332567850766 369.00874862135765 376.99999287692003 366.56499855356003C396.1666600753324 364.12124848576246 403.8333269546974 411.0124997866783 422.99999415310975 417.6249999701306C442.1666613515221 424.23750015358286 449.83332823088705 392.12374926264295 468.9999954292994 398.30499943413093C488.16666262771173 404.4862496056189 495.83332950707666 446.8637507813086 514.9999967054891 447.2950007932729C534.1666639039015 447.7262508052372 541.8333307832664 406.5562496630474 560.9999979816788 400.37499949155944C580.1666651800912 394.19374932007145 587.8333320594561 419.2062500139996 606.9999992578685 417.6249999701306C626.1666664562807 416.04374992626157 643.4166669348518 397.9599994245595 653.000000534058 392.78499928098813 " transform="rotate(69, 400, 400)"></path>
        <path d="M157.99998641967778 416.8586911454803C167.1666533406576 403.93369078689875 183.6666537984213 352.7561893670684 201.99998764038094 354.81868942428883C220.33332148234058 356.8811894815093 227.66665501912445 419.47119121795953 245.9999888610841 426.75869142013846C264.33332270304373 434.04619162231745 271.6666562398276 389.52369038711845 289.99999008178725 389.79869039474784C308.3333239237469 390.0736904023772 315.6666574605308 432.6161915826446 333.99999130249046 428.0786914567596C352.3333251444501 423.54119133087454 359.6666586812339 370.3561898553496 377.99999252319355 368.01868979049976C396.3333263651532 365.6811897256499 403.6666599019371 410.5336909700042 421.99999374389677 416.8586911454803C440.3333275858564 423.18369132095637 447.6666611226403 392.466190468753 465.9999949645999 398.378690632785C484.3333288065595 404.2911907968169 491.6666623433434 444.82619192138975 509.9999961853031 445.23869193283383C528.3333300272627 445.6511919442779 535.6666635640465 406.2711908517486 553.9999974060063 400.3586906877166C572.3333312479659 394.4461905236846 579.6666647847499 418.3711911874419 597.9999986267094 416.8586911454803C616.3333324686689 415.3461911035186 632.8333329264326 398.0486906236297 641.9999998474125 393.0986904863006 " transform="rotate(66, 400, 400)"></path>
        <path d="M168.99998634338385 416.09239757961905C177.7499865861373 403.75489723733665 193.49998702309355 354.90364588204403 210.9999875086005 356.87239593666357C228.4999879941074 358.8411459912831 235.49998818831023 418.5861476488038 252.99998867381714 425.54239784179276C270.49998915932406 432.4986480347818 277.49998935352687 389.9998968557282 294.9999898390338 390.2623968630108C312.4999903245407 390.52489687029345 319.4999905187435 431.13364799691226 336.99999100425043 426.8023978767493C354.49999148975735 422.47114775658633 361.49999168396016 371.7036463481307 378.9999921694671 369.47239628622856C396.49999265497405 367.2411462243264 403.4999928491768 410.05489741211915 420.9999933346837 416.09239757961905C438.4999938201907 422.12989774711895 445.4999940143935 392.8086469336521 462.9999944999004 398.45239709022803C480.4999949854073 404.09614724680404 487.4999951796101 442.7886483202599 504.99999566511707 443.1823983311838C522.4999961506239 443.5761483421077 529.4999963448267 405.9861472992388 546.9999968303338 400.34239714266283C564.4999973158407 394.6986469860868 571.4999975100434 417.5361476196734 588.9999979955503 416.09239757961905C606.4999984810572 414.6486475395647 622.2499989180135 398.1373970814889 630.999999160767 393.41239695040207 " transform="rotate(63, 400, 400)"></path>
        <path d="M179.9999862670899 415.32608494027147C188.33331983161702 403.5760846142883 203.3333202477658 357.05108332353336 219.99998737682003 358.92608337555197C236.66665450587425 360.8010834275706 243.33332135749595 417.7010850061617 259.9999884865502 424.3260851899608C276.6666556156044 430.95108537375984 283.33332246722614 390.4760842508516 299.99998959628033 390.7260842577875C316.6666567253345 390.9760842647233 323.3333235769563 429.6510853376936 339.9999907060105 425.52608522325266C356.6666578350647 421.40108510881174 363.3333246866864 373.05108376742544 379.9999918157406 370.926083708471C396.6666589447948 368.8010836495166 403.33332579641655 409.5760847807478 419.9999929254708 415.32608494027147C436.666660054525 421.0760850997952 443.3333269061467 393.15108432506486 459.9999940352009 398.5260844741848C476.6666611642551 403.9010846233048 483.33332801587676 440.7510856456437 499.99999514493106 441.1260856560474C516.6666622739854 441.50108566645116 523.333329125607 405.7010846732427 539.9999962546613 400.3260845241227C556.6666633837156 394.95108437500267 563.3333302353371 416.70108497841846 579.9999973643913 415.32608494027147C596.6666644934455 413.95108490212453 611.6666649095944 398.22608446586185 619.9999984741214 393.7260843410172 " transform="rotate(60, 400, 400)"></path>
        <path d="M190.99998619079594 414.5597799303185C198.9166530770967 403.3972796206344 213.16665347243807 359.1985283944173 228.99998724503956 360.97977844383496C244.83332101764108 362.76102849325264 251.1666545266817 416.8160299929142 266.99998829928325 423.1097801675233C282.8333220718847 429.4035303421324 289.16665558092535 390.9522792753696 304.99998935352687 391.18977928195864C320.83332312612833 391.42727928854765 327.166656635169 428.16853030786945 342.9999904077705 424.24978019915056C358.833324180372 420.33103009043174 365.1666576894126 374.3985288161147 380.9999914620141 372.379778760108C396.8333252346156 370.36102870410133 403.1666587436563 409.09727977877094 418.99999251625775 414.5597799303185C434.83332628885927 420.022280081866 441.1666597978999 393.49352934587216 456.99999357050143 398.5997794875361C472.8333273431029 403.70602962920015 479.1666608521435 438.7135306004221 494.99999462474506 439.0697806103056C510.8333283973466 439.4260306201891 517.1666619063872 405.4160296766411 532.9999956789886 400.3097795349771C548.8333294515903 395.2035293933131 555.1666629606309 415.8660299665581 570.9999967332324 414.5597799303185C586.8333305058338 413.25352989407884 601.0833309011753 398.3147794796293 608.9999977874759 394.0397793610269 " transform="rotate(57, 400, 400)"></path>
        <path d="M201.999986114502 413.7934711056682C209.49998632257638 403.2184708122833 222.99998669711033 361.3459696506039 237.99998711325912 363.0334696974206C252.99998752940792 364.7209697442374 258.99998769586745 415.9309711649694 273.99998811201624 421.89347133038854C288.9999885281651 427.8559714958077 294.99998869462456 391.4284704851903 309.9999891107734 391.65347049143253C324.9999895269222 391.87847049767475 330.99998969338174 426.68597146334804 345.99999010953053 422.97347136035125C360.9999905256793 419.2609712573544 366.9999906921388 375.74597005010673 381.99999110828765 373.83346999704776C396.99999152443644 371.9209699439888 402.99999169089597 408.6184709620968 417.99999210704476 413.7934711056682C432.99999252319355 418.96847124923954 438.99999268965314 393.8359705519822 453.99999310580193 398.67347068619017C468.9999935219507 403.51097082039814 474.9999936884102 436.67597174050314 489.99999410455905 437.01347174986654C504.9999945207079 437.3509717592299 510.9999946871674 405.13097086534225 525.9999951033162 400.2934707311342C540.9999955194651 395.45597059692625 546.9999956859245 415.0309711400004 561.9999961020733 413.7934711056682C576.9999965182221 412.5559710713359 590.499996892756 398.4034706786995 597.9999971008303 394.3534705663393 " transform="rotate(54, 400, 400)"></path>
        <path d="M212.99998603820805 413.0271775398069C220.08331956805608 403.03967726272117 232.8333199217826 363.49342616557954 246.99998698147868 365.08717620979536C261.16665404117475 366.6809262540112 266.8333208650532 415.0459275958136 280.9999879247493 420.67717775204284C295.16665498444536 426.30842790827205 300.83332180832383 391.90467695380005 314.99998886801995 392.1171769596955C329.166655927716 392.3296769655909 334.83332275159444 425.20342787761575 348.99998981129056 421.69717778034095C363.1666568709866 418.19092768306615 368.83332369486504 377.0934265428878 382.99999075456117 375.28717649277655C397.16665781425723 373.4809264426653 402.8333246381357 408.1396774042118 416.9999916978318 413.0271775398069C431.1666587575279 417.9146776754021 436.8333255814063 394.1784270168813 450.99999264110244 398.7471771436333C465.1666597007985 403.31592727038526 470.8333265246769 434.63842813937333 484.99999358437304 434.9571781482165C499.16666064406917 435.27592815705964 504.8333274679476 404.8459273128325 518.9999945276437 400.27717718608045C533.1666615873398 395.70842705932847 538.8333284112182 414.1959275722319 552.9999954709143 413.0271775398069C567.1666625306103 411.85842750738203 579.9166628843368 398.4921771365588 586.9999964141849 394.6671770304408 " transform="rotate(51, 400, 400)"></path>
        <path d="M223.9999859619141 412.2608687151566C230.6666528135358 402.86086845437006 242.66665314645485 365.6408674217662 255.99998684969822 367.140867463381C269.3333205529416 368.6408675049959 274.66665403423895 414.1608687678688 287.99998773748234 419.4608689149081C301.3333214407257 424.7608690619473 306.6666549220231 392.3808681636208 319.99998862526644 392.58086816916943C333.33332232850984 392.7808681747181 338.6666558098072 423.72086903309435 351.99998951305054 420.4208689415416C365.33332321629393 417.1208688499889 370.6666566975913 378.4408677768798 383.9999904008347 376.7408677297163C397.3333241040781 375.04086768255274 402.66665758537545 407.66086858753766 415.99999128861884 412.2608687151566C429.3333249918621 416.86086884277563 434.66665847315954 394.52086822299134 447.9999921764029 398.8208683422873C461.3333258796463 403.1208684615833 466.6666593609436 432.6008692794544 479.99999306418704 432.90086928777737C493.33332676743044 433.2008692961004 498.6666602487278 404.5608685015336 511.99999395197113 400.2608683822376C525.3333276552146 395.96086826294163 530.666661136512 413.3608687456742 543.9999948397553 412.2608687151566C557.3333285429986 411.16086868463907 569.3333288759177 398.5808683356289 575.9999957275394 394.98086823575323 " transform="rotate(48, 400, 400)"></path>
        <path d="M234.99998588562016 411.49456370520363C241.2499860590155 402.6820634607162 252.49998637112708 367.78831249265005 264.99998671791775 369.194562531664C277.4999870647084 370.60081257067793 282.49998720342467 413.2758137546213 294.99998755021534 418.2445638924706C307.499987897006 423.2133140303199 312.4999880357223 392.85706318813874 324.999988382513 393.0445631933406C337.49998872930365 393.23206319854245 342.49998886801995 422.2383140032702 354.9999892148106 419.14456391743954C367.4999895616013 416.0508138316088 372.49998970031754 379.7883128255691 384.9999900471082 378.1945627813533C397.4999903938989 376.60081273713746 402.49999053261513 407.18206358556085 414.9999908794058 411.49456370520363C427.49999122619647 415.8070638248464 432.4999913649127 394.86331324379864 444.9999917117034 398.89456335563864C457.49999205849406 402.92581346747863 462.4999921972103 430.5633142342328 474.999992544001 430.8445642420356C487.4999928907917 431.12581424983836 492.49999302950795 404.275813504932 504.9999933762987 400.244563393092C517.4999937230893 396.213313281252 522.4999938618056 412.52581373381383 534.9999942085963 411.49456370520363C547.4999945553868 410.4633136765934 558.7499948674986 398.6695633493964 564.9999950408939 395.2945632557629 " transform="rotate(45, 400, 400)"></path>
        <path d="M245.9999858093262 410.72826823199375C251.83331930449518 402.5032680038055 262.33331959579937 369.9357671002771 273.9999865861373 371.2482671366901C285.66665357647526 372.5607671731031 290.33332037261044 412.3907682781169 301.9999873629484 417.02826840677625C313.6666543532864 421.6657685354356 318.3333211494216 393.33326774939985 329.9999881397595 393.5082677542549C341.66665513009747 393.68326775911 346.33332192623266 420.7557685101892 357.9999889165706 417.8682684300806C369.66665590690855 414.9807683499719 374.3333227030438 381.13576741100155 385.99998969338174 379.64826736973345C397.6666566837197 378.16076732846534 402.3333234798548 406.70326812032715 413.9999904701928 410.72826823199375C425.6666574605308 414.75326834366035 430.33332425666595 395.2057678013491 441.99999124700395 398.9682679057331C453.66665823734184 402.7307680101171 458.3333250334771 428.52576872575435 469.999992023815 428.78826873303694C481.66665901415297 429.05076874031954 486.33332581028816 403.9907680450736 497.99999280062616 400.2282679406896C509.6666597909641 396.4657678363056 514.3333265870992 411.6907682586966 525.9999935774372 410.72826823199375C537.6666605677751 409.7657682052909 548.1666608590793 398.758267899907 553.9999943542483 395.60826781251575 " transform="rotate(42, 400, 400)"></path>
        <path d="M256.99998573303225 409.9619555926462C262.41665254997486 402.3244553807571 272.1666528204716 372.0832045417664 282.9999864543569 373.3019545755785C293.8333200882421 374.52070460939063 298.1666535417962 411.50570563547484 308.99998717568144 415.8119557549442C319.83332080956666 420.1182058744136 324.1666542631208 393.8094551445233 334.999987897006 393.9719551490316C345.8333215308913 394.1344551535399 350.1666549844454 419.27320585097056 360.99998861833063 416.591955776584C371.8333222522159 413.9107057021974 376.16665570577 382.48320483029624 386.99998933965526 381.1019547919759C397.8333229735405 379.7207047536555 402.1666564270946 406.2244554889558 412.9999900609798 409.9619555926462C423.83332369486504 413.6994556963366 428.1666571484192 395.5482051927619 438.9999907823044 399.0419552896899C449.83332441618967 402.53570538661785 454.16665786974374 426.48820605113815 464.999991503629 426.73195605790056C475.8333251375143 426.975706064663 480.1666585910683 403.70570541907745 490.99999222495364 400.2119553221495C501.83332585883886 396.7182052252215 506.166659312393 410.85570561744174 516.9999929462782 409.9619555926462C527.8333265801634 409.06820556785067 537.5833268506601 398.84695528427994 542.9999936676028 395.9219552031309 " transform="rotate(39, 400, 400)"></path>
        <path d="M267.9999856567383 409.1956505826932C272.99998579545456 402.1456503871032 281.9999860451438 374.2306496126503 291.99998632257643 375.35564964386145C301.9999866000089 376.48064967507264 305.99998671098194 410.6206506222273 315.9999869884145 414.5956507325067C325.99998726584704 418.57065084278616 329.99998737682006 394.2856501690413 339.99998765425255 394.43565017320276C349.9999879316851 394.58565017736424 353.9999880426581 417.7906508211464 363.99998832009067 415.3156507524819C373.9999885975232 412.84065068381733 377.9999887084962 383.8306498789855 387.9999889859287 382.5556498436129C397.9999892633613 381.28064980824024 401.9999893743343 405.74565048697895 411.99998965176684 409.1956505826932C421.9999899291994 412.6456506784074 425.9999900401724 395.8906502135692 435.9999903176049 399.11565030304115C445.99999059503745 402.34065039251317 449.99999070601046 424.4506510059165 459.999990983443 424.6756510121587C469.99999126087556 424.90065101840094 473.9999913718486 403.4206504224759 483.9999916492811 400.19565033300387C493.9999919267137 396.9706502435319 497.99999203768664 410.02065060558135 507.9999923151192 409.1956505826932C517.9999925925517 408.370650559805 526.999992842241 398.9356502980474 531.9999929809572 396.2356502231406 " transform="rotate(36, 400, 400)"></path>
        <path d="M279.0000008392334 408.42934557274015C283.58333429972333 401.9668453934494 291.8333345286052 376.3780946835342 301.000001449585 377.4093447121444C310.1666683705648 378.44059474075465 313.8333351389567 409.7355956089798 323.0000020599366 413.37934571006923C332.16666898091637 417.0230958111587 335.83333574930833 394.7618451935592 345.00000267028815 394.8993451973739C354.166669591268 395.0368452011886 357.83333635965994 416.3080957913223 367.00000328063976 414.03934572837977C376.1666702016196 411.77059566543727 379.8333369700115 385.1780949276748 389.0000038909913 384.0093448952499C398.16667081197113 382.84059486282496 401.8333375803631 405.2668454850021 411.0000045013429 408.42934557274015C420.16667142232274 411.59184566047816 423.8333381907147 396.2330952343765 433.00000511169446 399.18934531639246C442.1666720326743 402.1455953984085 445.83333880106625 422.4130959606949 455.00000572204607 422.6193459664169C464.1666726430259 422.82559597213896 467.8333394114178 403.13559542587427 477.0000063323977 400.1793453438583C486.1666732533775 397.22309526184233 489.83334002176946 409.18559559372096 499.0000069427492 408.42934557274015C508.166673863729 407.6730955517593 516.4166740926108 399.02434531181484 521.0000075531008 396.5493452431503 " transform="rotate(33, 400, 400)"></path>
        <path d="M290.00000076293946 407.66303865543847C294.16666754520304 401.78803849244684 301.66666775327747 378.5255378470694 310.00000131780456 379.46303787307875C318.33333488233166 380.400537899088 321.6666683081425 408.8505386883836 330.0000018726696 412.1630387802831C338.33333543719675 415.47553887218265 341.6666688630076 395.23803831072854 350.0000024275347 395.36303831419644C358.3333359920618 395.48803831766435 361.66666941787264 414.8255388541495 370.0000029823998 412.7630387969291C378.3333365469269 410.70053873970863 381.66666997273774 386.52553806901545 390.00000353726483 385.4630380395382C398.3333371017919 384.40053801006104 401.66667052760283 404.78803857567664 410.0000040921299 407.66303865543847C418.333337656657 410.5380387352003 421.6666710824679 396.57553834783516 430.00000464699497 399.26303842239514C438.3333382115221 401.9505384969551 441.6666716373329 420.3755390081246 450.00000520186006 420.56303901332643C458.3333387663872 420.7505390185283 461.666672192198 402.8505385219241 470.00000575672516 400.1630384473641C478.3333393212523 397.47553837280407 481.6666727470631 408.35053867451194 490.0000063115902 407.66303865543847C498.3333398761173 406.975538636365 505.8333400841917 399.11303841823366 510.00000686645524 396.86303835581134 " transform="rotate(30, 400, 400)"></path>
        <path d="M301.00000068664554 406.89673746018275C304.75000079068275 401.60923731349027 311.5000009779497 380.67298673265054 319.00000118602406 381.51673675605895C326.5000013940985 382.3604867794673 329.5000014773283 407.9654874898333 337.00000168540265 410.9467375725429C344.5000018934771 413.9279876552525 347.5000019767068 395.71423714994376 355.00000218478124 395.82673715306487C362.50000239285566 395.93923715618604 365.5000024760854 413.3429876390227 373.00000268415977 411.48673758752426C380.5000028922342 409.63048753602584 383.50000297546393 387.872986932402 391.00000318353835 386.91673690587254C398.5000033916127 385.960486879343 401.5000034748425 404.30923738839704 409.00000368291694 406.89673746018275C416.5000038909913 409.4842375319684 419.5000039742211 396.91798718333973 427.00000418229547 399.3367372504437C434.5000043903699 401.7554873175477 437.50000447359963 418.33798777760023 445.00000468167406 418.5067377822819C452.5000048897485 418.6754877869636 455.5000049729782 402.56548734001973 463.00000518105264 400.14673727291574C470.50000538912707 397.72798720581176 473.5000054723568 407.51548747734887 481.0000056804312 406.89673746018275C488.5000058885056 406.27798744301657 495.25000607577255 399.20173724669837 499.0000061798097 397.1767371905183 " transform="rotate(27, 400, 400)"></path>
        <path d="M312.00000061035155 406.13043626492697C315.33333403616246 401.4304361345337 321.3333342026219 382.8204356182317 328.0000010542436 383.57043563903915C334.6666679058653 384.32043565984657 337.333334646514 407.08043629128304 344.0000014981357 409.7304363648027C350.6666683497574 412.3804364383223 353.3333350904061 396.190435989159 360.0000019420278 396.29043599193335C366.6666687936495 396.3904359947077 369.33333553429816 411.8604364238958 376.0000023859198 410.2104363781194C382.6666692375415 408.56043633234304 385.3333359781902 389.22043579578855 392.0000028298119 388.37043577220675C398.6666696814336 387.520435748625 401.33333642208225 403.8304362011175 408.00000327370395 406.13043626492697C414.6666701253256 408.43043632873645 417.3333368659743 397.2604360188443 424.000003717596 399.4104360784923C430.6666705692177 401.5604361381403 433.33333730986635 416.30043654707583 440.00000416148805 416.4504365512373C446.66667101310975 416.6004365553988 449.3333377537584 402.28043615811544 456.0000046053801 400.13043609846744C462.6666714570018 397.98043603881945 465.3333381976505 406.68043628018575 472.0000050492722 406.13043626492697C478.66667190089385 405.5804362496682 484.6666720673534 399.2904360751631 488.0000054931642 397.4904360252252 " transform="rotate(24, 400, 400)"></path>
        <path d="M323.0000005340576 405.3641303012996C325.9166672816421 401.2516301872055 331.1666674272942 384.9678797354413 337.0000009224632 385.62412975364776C342.83333441763216 386.2803797718543 345.1666678156997 406.19538032436117 351.0000013108687 408.5141303886909C356.8333348060377 410.83288045302055 359.16666820410535 396.66663006000266 365.0000016992743 396.7541300624302C370.8333351944433 396.8416300648577 373.16666859251086 410.37788044039735 379.00000208767983 408.934130400343C384.8333355828488 407.4903803602887 387.1666689809164 390.5678798908035 393.0000024760854 389.82412987016943C398.83333597125437 389.0803798495354 401.16666936932194 403.3516302454663 407.00000286449097 405.3641303012996C412.83333635965994 407.3766303571329 415.1666697577275 397.6028800859773 421.0000032528965 399.4841301381693C426.83333674806545 401.3653801903613 429.1666701461331 414.2628805481799 435.00000364130204 414.3941305518212C440.833337136471 414.5253805554625 443.16667053453864 401.9953802078395 449.0000040297076 400.11413015564756C454.8333375248766 398.23288010345556 457.16667092294415 405.84538031465104 463.0000044181131 405.3641303012996C468.8333379132821 404.8828802879482 474.0833380589342 399.3791301352562 477.0000048065187 397.80413009156064 " transform="rotate(21, 400, 400)"></path>
        <path d="M334.0000004577637 404.5978262450209C336.5000005271218 401.07282614722595 341.00000065196645 387.11532575999945 346.00000079068275 387.6778257756051C351.000000929399 388.24032579121064 353.0000009848855 405.31032626478793 358.0000011236018 407.2978263199277C363.00000126231805 409.28532637506737 365.00000131780456 397.1428260381949 370.0000014565208 397.21782604027567C375.0000015952371 397.2928260423564 377.00000165072356 408.8953263642475 382.00000178943986 407.6578263299152C387.00000192815617 406.420326295583 389.0000019836426 391.9153258931671 394.00000212235886 391.27782587548074C399.00000226107517 390.64032585779444 401.0000023165617 402.8728261971638 406.0000024552779 404.5978262450209C411.0000025939942 406.322826292878 413.00000264948073 397.9453260604589 418.000002788197 399.5578261051949C423.0000029269132 401.17032614993093 425.0000029823998 412.22532645663256 430.00000312111604 412.33782645975367C435.0000032598323 412.4503264628748 437.00000331531885 401.71032616491226 442.0000034540351 400.09782612017625C447.00000359275134 398.48532607544024 449.00000364823785 405.01032625646496 454.00000378695415 404.5978262450209C459.0000039256704 404.1853262335768 463.50000405051503 399.46782610269804 466.00000411987315 398.1178260652446 " transform="rotate(18, 400, 400)"></path>
        <path d="M344.99999656677244 403.8315212350679C347.08332995790425 400.89402115357206 350.83333006194147 389.26277083088337 354.99999684420504 389.731520843888C359.16666362646856 390.20027085689264 360.833330339374 404.42527125154044 364.99999712163753 406.0815212974902C369.1666639039011 407.73777134343993 370.8333306168065 397.61902106271293 374.9999973990701 397.6815210644469C379.16666418133366 397.74402106618084 380.83333089423905 407.4127713344234 384.99999767650263 406.3815213058132C389.16666445876615 405.3502712772029 390.8333311716716 393.2627709418564 394.9999979539351 392.73152092711774C399.1666647361987 392.20027091237915 400.83333144910415 402.39402119518695 404.9999982313677 403.8315212350679C409.16666501363125 405.2690212749488 410.8333317265367 398.2877710812662 414.9999985088002 399.6315211185462C419.1666652910638 400.9752711558262 420.8333320039692 410.18777141141095 424.99999878623277 410.2815214140119C429.16666556849634 410.3752714166128 430.83333228140174 401.4252711683107 434.9999990636653 400.0815211310307C439.1666658459289 398.73777109375067 440.8333325588343 404.17527124460463 444.9999993410978 403.8315212350679C449.1666661233614 403.4877712255311 452.9166662273986 399.55652111646543 454.99999961853035 398.4315210852543 " transform="rotate(15, 400, 400)"></path>
        <path d="M355.9999964904785 403.0652181324635C357.66666320338396 400.71521806726685 360.6666632866137 391.41021780911586 363.99999671242455 391.7852178195196C367.3333301382354 392.1602178299233 368.66666350855974 403.5402181456415 371.9999969343706 404.86521818240135C375.33333036018144 406.1902182191611 376.6666637305058 398.0952179945795 379.9999971563166 398.1452179959667C383.3333305821275 398.19521799735384 384.6666639524518 405.93021821194793 387.9999973782626 405.1052181890597C391.3333308040735 404.28021816617155 392.66666417439785 394.61021789789424 395.99999760020864 394.1852178861034C399.33333102601955 393.7602178743125 400.6666643963439 401.9152181005587 403.9999978221547 403.0652181324635C407.33333124796553 404.21521816436825 408.6666646182899 398.63021800942215 411.9999980441007 399.7052180392461C415.33333146991157 400.78021806907014 416.6666648402359 408.1502182735379 419.99999826604676 408.22521827561866C423.3333316918576 408.3002182776994 424.66666506218195 401.1402180790577 427.9999984879928 400.06521804923375C431.33333191380365 398.9902180194097 432.666665284128 403.3402181400929 435.99999870993884 403.0652181324635C439.33333213574963 402.7902181248341 442.3333322189794 399.64521803758157 443.9999989318849 398.7452180126126 " transform="rotate(12, 400, 400)"></path>
        <path d="M366.9999964141846 402.2989150298591C368.2499964488636 400.5364149809616 370.499996511286 393.55766478734836 372.9999965806441 393.83891479515114C375.49999665000223 394.1201648029539 376.49999667774546 402.6551650397426 378.99999674710364 403.6489150673125C381.49999681646176 404.6426650948823 382.49999684420504 398.5714149264461 384.9999969135631 398.60891492748647C387.4999969829213 398.64641492852684 388.4999970106645 404.44766508947237 390.9999970800227 403.82891507230624C393.4999971493808 403.2101650551401 394.49999717712404 395.95766485393216 396.99999724648217 395.638914845089C399.49999731584035 395.32016483624585 400.4999973435836 401.43641500593054 402.9999974129417 402.2989150298591C405.4999974822998 403.16141505378766 406.4999975100431 398.9726649375781 408.9999975794012 399.77891495994606C411.49999764875935 400.5851649823141 412.49999767650263 406.1126651356649 414.99999774586075 406.1689151372255C417.4999978152189 406.22516513878605 418.49999784296216 400.85516498980473 420.9999979123203 400.04891496743676C423.4999979816784 399.2426649450688 424.4999980094217 402.5051650355811 426.9999980787798 402.2989150298591C429.49999814813793 402.09266502413703 431.74999821056025 399.73391495869765 432.99999824523934 399.0589149399709 " transform="rotate(9, 400, 400)"></path>
        <path d="M378.0000001525879 401.5326081125574C378.8333335090406 400.3576080799591 380.3333335506555 395.70510795088364 382.0000002635609 395.8926079560855C383.66666697646633 396.08010796128735 384.3333336616285 401.77010811914647 386.0000003745339 402.43260813752636C387.66666708743935 403.09510815590625 388.3333337726015 399.04760804361547 390.0000004855069 399.07260804430905C391.66666719841237 399.09760804500263 392.33333388357454 402.96510815229965 394.00000059647994 402.55260814085557C395.6666673093854 402.14010812941143 396.33333399454756 397.3051079952728 398.00000070745295 397.09260798937737C399.6666674203584 396.88010798348193 400.3333341055206 400.95760809660504 402.000000818426 401.5326081125574C403.6666675313314 402.1076081285098 404.33333421649354 399.31510805103676 406.000000929399 399.85260806594874C407.66666764230445 400.3901080808607 408.33333432746656 404.07510818309464 410.000001040372 404.112608184135C411.66666775327747 404.1501081851754 412.3333344384396 400.57010808585454 414.00000115134503 400.03260807094256C415.6666678642505 399.4951080560305 416.3333345494126 401.67010811637215 418.00000126231805 401.5326081125574C419.66666797522345 401.3951081087427 421.16666801683834 399.82260806511647 422.00000137329107 399.372608052632 " transform="rotate(6, 400, 400)"></path>
        <path d="M389.00000007629393 400.76630500995304C389.4166667545203 400.1788049936539 390.1666667753277 397.85255492911614 391.00000013178044 397.94630493171707C391.83333348823317 398.040054934318 392.1666668308143 400.88505501324755 393.00000018726695 401.2163050224375C393.8333335437197 401.54755503162744 394.16666688630073 399.52380497548205 395.00000024275346 399.53630497582884C395.8333335992062 399.54880497617563 396.1666669417873 401.48255502982414 397.00000029823997 401.2763050241021C397.8333336546927 401.07005501838006 398.16666699727375 398.6525549513107 399.0000003537265 398.546304948363C399.8333337101792 398.4400549454153 400.16666705276026 400.47880500197687 401.000000409213 400.76630500995304C401.8333337656657 401.0538050179292 402.16666710824677 399.6575549791927 403.0000004646995 399.9263049866487C403.8333338211522 400.1950549941047 404.1666671637333 402.03755504522167 405.000000520186 402.05630504574185C405.83333387663873 402.07505504626204 406.1666672192198 400.2850549966016 407.0000005756725 400.01630498914557C407.83333393212524 399.7475549816896 408.1666672747063 400.8350550118604 409.000000631159 400.76630500995304C409.8333339876117 400.6975550080457 410.5833340084192 399.91130498623255 411.00000068664554 399.6863049799903 " transform="rotate(3, 400, 400)"></path></g></svg>")" stop-opacity="1" offset="45%"></stop><stop stop-color="hsl(331, 90%, 56%)" stop-opacity="1" offset="100%"></stop></linearGradient></defs><g stroke-width="2" stroke="#wwwhirl-grad" fill="none" stroke-linecap="round">
        <path d="M37.00000251770027 425.2880386255691C50.75000289917 405.90053808769676 75.50000358581553 329.1342859579512 103.000004348755 332.22803604378186C130.50000511169446 335.3217861296126 141.5000054168703 429.2067887342879 169.00000617980973 440.1380390375564C196.5000069427492 451.0692893408248 207.50000724792503 384.2855374880263 235.00000801086446 384.6980374994704C262.500008773804 385.11053751091447 273.5000090789798 448.9242892813155 301.0000098419193 442.118039092488C328.50001060485874 435.3117889036605 339.5000109100345 355.53428669037305 367.000011672974 352.0280365930983C394.50001243591345 348.5217864958235 405.5000127410893 415.8005383623549 433.0000135040287 425.2880386255691C460.5000142669682 434.7755388887832 471.50001457214404 388.6992876104781 499.0000153350834 397.5680378565261C526.5000160980228 406.43678810257404 537.5000164031987 467.2392897894332 565.0000171661382 467.8580398065994C592.5000179290777 468.4767898237655 603.5000182342535 409.40678818497156 631.000018997193 400.53803793892354C658.5000197601325 391.66928769287557 669.5000200653083 427.5567886885116 697.0000208282477 425.2880386255691C724.5000215911871 423.01928856262657 749.2500222778326 397.07303784279316 763.0000226593024 389.64803763679953 " transform="rotate(99, 400, 400)"></path>
        <path d="M48.00000244140632 424.5217374303133C61.33333614464971 405.7217369087401 85.3333368104878 331.2817348435323 112.00000421697456 334.2817349267621C138.6666716234613 337.28173500999185 149.33333858605602 428.32173753573767 176.00000599254278 438.92173782981615C202.66667339902952 449.52173812389464 213.33334036162427 384.7617363272415 240.000007768111 385.1617363383388C266.6666751745978 385.56173634943616 277.3333421371925 447.4417380661887 304.00000954367925 440.84173788308317C330.66667695016605 434.2417376999777 341.3333439127607 356.8817355537596 368.00001131924745 353.48173545943257C394.66667872573424 350.0817353651055 405.33334568832896 415.3217371750753 432.00001309481576 424.5217374303133C458.66668050130244 433.72173768555126 469.3333474638972 389.0417364459827 496.0000148703839 397.64173668457465C522.6666822768707 406.2417369231666 533.3333492394653 465.2017385589088 560.0000166459522 465.8017385755548C586.666684052439 466.4017385922008 597.3333510150337 409.1217370030672 624.0000184215204 400.52173676447524C650.6666858280073 391.9217365258832 661.3333527906019 426.72173749134845 688.0000201970887 424.5217374303133C714.6666876035754 422.32173736927814 738.6666882694134 397.16173667125787 752.0000219726569 389.96173647150647 " transform="rotate(96, 400, 400)"></path>
        <path d="M59.00000236511238 423.7554362350575C71.9166693901294 405.54293572978355 95.16667003516005 333.42918372911345 121.00000408519412 336.3354338097423C146.83333813522813 339.2416838903711 157.1666717552418 427.4366863371874 183.0000058052758 437.7054366220759C208.83333985530987 447.97418690696446 219.1666734753235 385.23793516645674 245.00000752535757 385.6254351772073C270.8333415753916 386.0129351879578 281.1666751954052 445.95918685106176 307.0000092454393 439.5654366736784C332.83334329547336 433.1716864962949 343.16667691548696 358.22918441714614 369.00001096552097 354.93543432576683C394.83334501555504 351.64168423438747 405.1666786355687 414.8429359877958 431.0000126856027 423.7554362350575C456.8333467356368 432.6679364823193 467.16668035565044 389.38418528148725 493.0000144056845 397.71543551262323C518.8333484557185 406.0466857437592 529.1666820757321 463.16418732838446 555.0000161257661 463.7454373445102C580.8333501758003 464.326687360636 591.1666837958139 408.83668582116286 617.000017845848 400.5054355900269C642.8333518958821 392.1741853588909 653.1666855158957 425.8866862941853 679.0000195659296 423.7554362350575C704.8333536159636 421.6241861759297 728.0833542609943 397.2504354997226 741.0000212860114 390.2754353062134 " transform="rotate(93, 400, 400)"></path>
        <path d="M70.00000228881842 422.98912741040726C82.50000263560909 405.3641269214324 105.00000325983231 335.5766249853001 130.00000395341365 338.389125063328C155.00000464699497 341.20162514135586 165.00000492442751 426.55162750924256 190.00000561800886 436.48912778494116C215.0000063115902 446.42662806063976 225.00000658902275 385.7141263762775 250.00000728260406 386.0891263866812C275.00000797618543 386.4641263970849 285.000008253618 444.4766280065404 310.0000089471993 438.289127834879C335.00000964078066 432.10162766321764 345.00000991821315 359.57662565113816 370.0000106117945 356.38912556270657C395.00001130537584 353.2016254742749 405.0000115828084 414.36412717112165 430.0000122763897 422.98912741040726C455.000012969971 431.6141276496928 465.0000132474036 389.7266264875973 490.00001394098496 397.7891267112773C515.0000146345662 405.85162693495727 525.0000149119987 461.1266284684656 550.0000156055801 461.68912848407115C575.0000162991615 462.2516284996767 585.000016576594 408.55162700986403 610.0000172701755 400.48912678618404C635.0000179637568 392.42662656250405 645.0000182411893 425.05162746762767 670.0000189347705 422.98912741040726C695.0000196283519 420.92662735318675 717.5000202525752 397.33912669879277 730.0000205993658 390.5891265115258 " transform="rotate(90, 400, 400)"></path>
        <path d="M81.00000221252448 422.2228224004542C93.08333588108879 405.18532192777855 114.83333648450457 337.72407005618396 139.0000038216332 340.4428201316109C163.1666711587618 343.1615702070379 172.83333809361326 425.666572495995 197.0000054307419 435.27282276250367C221.16667276787052 444.8790730290123 230.833339702722 386.1903214007954 255.00000703985063 386.55282141085235C279.16667437697924 386.91532142090927 288.83334131183074 442.99407297671627 313.00000864895935 437.0128228107769C337.16667598608797 431.0315726448376 346.8333429209394 360.92407069982744 371.000010258068 357.84282061434357C395.16667759519663 354.76157052885964 404.8333445300481 413.88532216914484 429.00001186717674 422.2228224004542C453.16667920430535 430.5603226317636 462.8333461391569 390.0690715084046 487.00001347628546 397.86282172462853C511.1666808134141 405.65657194085253 520.8333477482655 459.0890734232439 545.0000150853941 459.63282343832935C569.1666824225229 460.17657345341473 578.8333493573742 408.2665720132625 603.000016694503 400.4728217970384C627.1666840316316 392.6790715808145 636.8333509664831 424.21657245576733 661.0000183036116 422.2228224004542C685.1666856407402 420.2290723451411 706.9166862441559 397.4278217125602 719.0000199127203 390.9028215315355 " transform="rotate(87, 400, 400)"></path>
        <path d="M92.00000213623053 421.45652120519844C103.6666691265685 405.0065207488219 124.66666970917683 339.8715189417651 148.00000368985275 342.4965190145912C171.33333767052864 345.1215190874172 180.666671262799 424.7815212974448 204.00000524347493 434.05652155476344C227.33333922415085 443.33152181208214 236.66667281642125 386.66652024001064 260.00000679709717 387.01652024972077C283.33334077777306 387.36652025943096 292.66667437004344 441.5115217615894 316.0000083507193 435.7365216013721C339.3333423313953 429.96152144115484 348.66667592366565 362.271519563214 372.00000990434154 359.29651948067783C395.3333438850174 356.3215193981416 404.6666774772878 413.40652098186524 428.00001145796375 421.45652120519844C451.3333454386397 429.50652142853164 460.6666790309101 390.41152034390916 484.000013011586 397.9365205526771C507.33334699226185 405.4615207614451 516.6666805845323 457.0515221927196 540.0000145652082 457.57652220728477C563.3333485458841 458.10152222185 572.6666821381544 407.9815208313581 596.0000161188304 400.4565206225901C619.3333500995063 392.9315204138221 628.6666836917767 423.3815212586042 652.0000176724526 421.45652120519844C675.3333516531285 419.5315211517927 696.3333522357368 397.516520541025 708.0000192260748 391.2165203662425 " transform="rotate(84, 400, 400)"></path>
        <path d="M103.00000205993659 420.69020856585087C114.25000237204819 404.82770812577354 134.5000029338491 342.0189563832545 157.00000355807228 344.5502064534796C179.50000418229547 347.0814565237047 188.5000044319848 423.8964586548027 211.00000505620795 432.8402089029314C233.50000568043117 441.7839591510601 242.50000593012047 387.1427076351341 265.0000065543437 387.48020764449745C287.5000071785669 387.8177076538608 296.5000074282562 440.0289591023707 319.0000080524794 434.46020894787546C341.5000086767026 428.89145879338025 350.50000892639184 363.61895698250873 373.00000955061506 360.75020690292024C395.5000101748383 357.8814568233318 404.5000104245276 412.9277083504939 427.00001104875076 420.69020856585087C449.500011672974 428.4527087812079 458.5000119226633 390.75395773532193 481.00001254688647 398.0102079366339C503.50001317110963 405.2664581379459 512.5000134207988 455.0139595181034 535.0000140450221 455.52020953214844C557.5000146692455 456.02645954619345 566.5000149189347 407.696458205362 589.0000155431579 400.44020800405C611.5000161673811 393.183957802738 620.5000164170704 422.5464586173493 643.0000170412935 420.69020856585087C665.5000176655168 418.8339585143525 685.7500182273176 397.60520792539785 697.0000185394292 391.53020775685764 " transform="rotate(81, 400, 400)"></path>
        <path d="M114.00000198364263 419.9239035558979C124.83333561752788 404.6489031321197 144.33333615852135 344.16640145413834 166.0000034262918 346.6039015217625C187.6666706940623 349.0414015893867 196.3333376011705 423.01140364155515 218.000004868941 431.6239038804939C239.6666721367115 440.2364041194327 248.3333390438197 387.61890265965206 270.0000063115902 387.9439026686686C291.6666735793607 388.26890267768516 300.33334048646896 438.54640407254664 322.0000077542394 433.1839039237734C343.6666750220099 427.82140377500025 352.3333419291181 364.966402031198 374.0000091968886 362.2039019545573C395.6666764646591 359.4414018779165 404.3333433717673 412.44890334851704 426.0000106395378 419.9239035558979C447.66667790730827 427.39890376327867 456.3333448144165 391.09640275612924 478.00001208218697 398.0839029499852C499.66667934995746 405.07140314384117 508.33334625706556 452.97640447288177 530.0000135248362 453.4639044864066C551.6666807926067 453.9514044999314 560.3333476997147 407.4114032087604 582.0000149674854 400.42390301490445C603.6666822352558 393.43640282104843 612.3333491423641 421.71140360548895 634.0000164101345 419.9239035558979C655.666683677905 418.1364035063068 675.1666842188985 397.69390293916535 686.0000178527837 391.8439027768673 " transform="rotate(78, 400, 400)"></path>
        <path d="M125.00000190734869 419.15760999003663C135.41666886300757 404.4701095825576 154.1666693831936 346.313857969114 175.00000329451137 348.65760803413724C195.83333720582914 351.0013580991605 204.16667077035626 422.1263600723994 225.00000468167406 430.4076103021482C245.83333859299182 438.68886053189703 254.16667215751897 388.0951091282618 275.00000606883674 388.40760913693157C295.8333399801545 388.7201091456013 304.16667354468166 437.0638604868143 325.0000074559994 431.9076103437631C345.8333413673172 426.75136020071193 354.16667493184434 366.3138585239791 375.00000884316205 363.65760845028603C395.8333427544799 361.00135837659303 404.166676319007 411.97010979063197 425.0000102303248 419.15760999003663C445.83334414164256 426.34511018944124 454.1666777061697 391.43885922102834 475.0000116174875 398.1576094074283C495.83334552880524 404.8763595938283 504.1666790933323 450.9388608717519 525.0000130046501 451.40761088475654C545.8333469159679 451.8763608977612 554.166680480495 407.1263596562506 575.0000143918128 400.4076094698506C595.8333483031306 393.68885928345065 604.1666818676579 420.87636003772036 625.0000157789755 419.15760999003663C645.8333496902933 417.4388599423529 664.5833502104794 397.7826093970246 675.0000171661382 392.1576092409688 " transform="rotate(75, 400, 400)"></path>
        <path d="M136.00000183105476 418.3913049800836C146.00000210848728 404.2913045889037 164.00000260786584 348.46130303999786 184.00000316273093 350.7113031024202C204.00000371759597 352.96130316484255 212.000003939542 421.24130505915184 232.00000449440708 429.1913052797107C252.00000504927215 437.1413055002696 260.0000052712182 388.57130415277976 280.0000058260833 388.8713041611028C300.0000063809483 389.17130416942575 308.00000660289436 435.5813054569901 328.00000715775946 430.631305319661C348.00000771262455 425.6813051823319 356.00000793457053 367.6613035726683 376.0000084894356 365.11130350192303C396.00000904430067 362.56130343117775 404.0000092662467 411.49130478865516 424.0000098211118 418.3913049800836C444.0000103759769 425.2913051715121 452.0000105979229 391.78130424183564 472.000011152788 398.2313044207796C492.000011707653 404.6813045997236 500.00001192959905 448.90130582653023 520.0000124844642 449.35130583901474C540.0000130393292 449.8013058514992 548.0000132612753 406.84130465964904 568.0000138161404 400.39130448070506C588.0000143710055 393.9413043017611 596.0000145929514 420.04130502585997 616.0000151478165 418.3913049800836C636.0000157026815 416.7413049343072 654.00001620206 397.87130441079205 664.0000164794926 392.47130426097846 " transform="rotate(72, 400, 400)"></path>
        <path d="M146.9999864959717 417.6249999701306C156.5833200951779 404.11249959524986 173.83332057374906 350.6087481108818 192.9999877721614 352.76499817070317C212.16665497057375 354.92124823052455 219.8333218499387 420.35625004590435 238.99998904835104 427.9750002572732C258.1666562467634 435.59375046864216 265.8333231261284 389.04749917729777 284.9999903245407 389.33499918527394C304.1666575229531 389.6224991932501 311.83332440231806 434.098750427166 330.9999916007304 429.35500029555897C350.1666587991428 424.61125016395187 357.83332567850766 369.00874862135765 376.99999287692003 366.56499855356003C396.1666600753324 364.12124848576246 403.8333269546974 411.0124997866783 422.99999415310975 417.6249999701306C442.1666613515221 424.23750015358286 449.83332823088705 392.12374926264295 468.9999954292994 398.30499943413093C488.16666262771173 404.4862496056189 495.83332950707666 446.8637507813086 514.9999967054891 447.2950007932729C534.1666639039015 447.7262508052372 541.8333307832664 406.5562496630474 560.9999979816788 400.37499949155944C580.1666651800912 394.19374932007145 587.8333320594561 419.2062500139996 606.9999992578685 417.6249999701306C626.1666664562807 416.04374992626157 643.4166669348518 397.9599994245595 653.000000534058 392.78499928098813 " transform="rotate(69, 400, 400)"></path>
        <path d="M157.99998641967778 416.8586911454803C167.1666533406576 403.93369078689875 183.6666537984213 352.7561893670684 201.99998764038094 354.81868942428883C220.33332148234058 356.8811894815093 227.66665501912445 419.47119121795953 245.9999888610841 426.75869142013846C264.33332270304373 434.04619162231745 271.6666562398276 389.52369038711845 289.99999008178725 389.79869039474784C308.3333239237469 390.0736904023772 315.6666574605308 432.6161915826446 333.99999130249046 428.0786914567596C352.3333251444501 423.54119133087454 359.6666586812339 370.3561898553496 377.99999252319355 368.01868979049976C396.3333263651532 365.6811897256499 403.6666599019371 410.5336909700042 421.99999374389677 416.8586911454803C440.3333275858564 423.18369132095637 447.6666611226403 392.466190468753 465.9999949645999 398.378690632785C484.3333288065595 404.2911907968169 491.6666623433434 444.82619192138975 509.9999961853031 445.23869193283383C528.3333300272627 445.6511919442779 535.6666635640465 406.2711908517486 553.9999974060063 400.3586906877166C572.3333312479659 394.4461905236846 579.6666647847499 418.3711911874419 597.9999986267094 416.8586911454803C616.3333324686689 415.3461911035186 632.8333329264326 398.0486906236297 641.9999998474125 393.0986904863006 " transform="rotate(66, 400, 400)"></path>
        <path d="M168.99998634338385 416.09239757961905C177.7499865861373 403.75489723733665 193.49998702309355 354.90364588204403 210.9999875086005 356.87239593666357C228.4999879941074 358.8411459912831 235.49998818831023 418.5861476488038 252.99998867381714 425.54239784179276C270.49998915932406 432.4986480347818 277.49998935352687 389.9998968557282 294.9999898390338 390.2623968630108C312.4999903245407 390.52489687029345 319.4999905187435 431.13364799691226 336.99999100425043 426.8023978767493C354.49999148975735 422.47114775658633 361.49999168396016 371.7036463481307 378.9999921694671 369.47239628622856C396.49999265497405 367.2411462243264 403.4999928491768 410.05489741211915 420.9999933346837 416.09239757961905C438.4999938201907 422.12989774711895 445.4999940143935 392.8086469336521 462.9999944999004 398.45239709022803C480.4999949854073 404.09614724680404 487.4999951796101 442.7886483202599 504.99999566511707 443.1823983311838C522.4999961506239 443.5761483421077 529.4999963448267 405.9861472992388 546.9999968303338 400.34239714266283C564.4999973158407 394.6986469860868 571.4999975100434 417.5361476196734 588.9999979955503 416.09239757961905C606.4999984810572 414.6486475395647 622.2499989180135 398.1373970814889 630.999999160767 393.41239695040207 " transform="rotate(63, 400, 400)"></path>
        <path d="M179.9999862670899 415.32608494027147C188.33331983161702 403.5760846142883 203.3333202477658 357.05108332353336 219.99998737682003 358.92608337555197C236.66665450587425 360.8010834275706 243.33332135749595 417.7010850061617 259.9999884865502 424.3260851899608C276.6666556156044 430.95108537375984 283.33332246722614 390.4760842508516 299.99998959628033 390.7260842577875C316.6666567253345 390.9760842647233 323.3333235769563 429.6510853376936 339.9999907060105 425.52608522325266C356.6666578350647 421.40108510881174 363.3333246866864 373.05108376742544 379.9999918157406 370.926083708471C396.6666589447948 368.8010836495166 403.33332579641655 409.5760847807478 419.9999929254708 415.32608494027147C436.666660054525 421.0760850997952 443.3333269061467 393.15108432506486 459.9999940352009 398.5260844741848C476.6666611642551 403.9010846233048 483.33332801587676 440.7510856456437 499.99999514493106 441.1260856560474C516.6666622739854 441.50108566645116 523.333329125607 405.7010846732427 539.9999962546613 400.3260845241227C556.6666633837156 394.95108437500267 563.3333302353371 416.70108497841846 579.9999973643913 415.32608494027147C596.6666644934455 413.95108490212453 611.6666649095944 398.22608446586185 619.9999984741214 393.7260843410172 " transform="rotate(60, 400, 400)"></path>
        <path d="M190.99998619079594 414.5597799303185C198.9166530770967 403.3972796206344 213.16665347243807 359.1985283944173 228.99998724503956 360.97977844383496C244.83332101764108 362.76102849325264 251.1666545266817 416.8160299929142 266.99998829928325 423.1097801675233C282.8333220718847 429.4035303421324 289.16665558092535 390.9522792753696 304.99998935352687 391.18977928195864C320.83332312612833 391.42727928854765 327.166656635169 428.16853030786945 342.9999904077705 424.24978019915056C358.833324180372 420.33103009043174 365.1666576894126 374.3985288161147 380.9999914620141 372.379778760108C396.8333252346156 370.36102870410133 403.1666587436563 409.09727977877094 418.99999251625775 414.5597799303185C434.83332628885927 420.022280081866 441.1666597978999 393.49352934587216 456.99999357050143 398.5997794875361C472.8333273431029 403.70602962920015 479.1666608521435 438.7135306004221 494.99999462474506 439.0697806103056C510.8333283973466 439.4260306201891 517.1666619063872 405.4160296766411 532.9999956789886 400.3097795349771C548.8333294515903 395.2035293933131 555.1666629606309 415.8660299665581 570.9999967332324 414.5597799303185C586.8333305058338 413.25352989407884 601.0833309011753 398.3147794796293 608.9999977874759 394.0397793610269 " transform="rotate(57, 400, 400)"></path>
        <path d="M201.999986114502 413.7934711056682C209.49998632257638 403.2184708122833 222.99998669711033 361.3459696506039 237.99998711325912 363.0334696974206C252.99998752940792 364.7209697442374 258.99998769586745 415.9309711649694 273.99998811201624 421.89347133038854C288.9999885281651 427.8559714958077 294.99998869462456 391.4284704851903 309.9999891107734 391.65347049143253C324.9999895269222 391.87847049767475 330.99998969338174 426.68597146334804 345.99999010953053 422.97347136035125C360.9999905256793 419.2609712573544 366.9999906921388 375.74597005010673 381.99999110828765 373.83346999704776C396.99999152443644 371.9209699439888 402.99999169089597 408.6184709620968 417.99999210704476 413.7934711056682C432.99999252319355 418.96847124923954 438.99999268965314 393.8359705519822 453.99999310580193 398.67347068619017C468.9999935219507 403.51097082039814 474.9999936884102 436.67597174050314 489.99999410455905 437.01347174986654C504.9999945207079 437.3509717592299 510.9999946871674 405.13097086534225 525.9999951033162 400.2934707311342C540.9999955194651 395.45597059692625 546.9999956859245 415.0309711400004 561.9999961020733 413.7934711056682C576.9999965182221 412.5559710713359 590.499996892756 398.4034706786995 597.9999971008303 394.3534705663393 " transform="rotate(54, 400, 400)"></path>
        <path d="M212.99998603820805 413.0271775398069C220.08331956805608 403.03967726272117 232.8333199217826 363.49342616557954 246.99998698147868 365.08717620979536C261.16665404117475 366.6809262540112 266.8333208650532 415.0459275958136 280.9999879247493 420.67717775204284C295.16665498444536 426.30842790827205 300.83332180832383 391.90467695380005 314.99998886801995 392.1171769596955C329.166655927716 392.3296769655909 334.83332275159444 425.20342787761575 348.99998981129056 421.69717778034095C363.1666568709866 418.19092768306615 368.83332369486504 377.0934265428878 382.99999075456117 375.28717649277655C397.16665781425723 373.4809264426653 402.8333246381357 408.1396774042118 416.9999916978318 413.0271775398069C431.1666587575279 417.9146776754021 436.8333255814063 394.1784270168813 450.99999264110244 398.7471771436333C465.1666597007985 403.31592727038526 470.8333265246769 434.63842813937333 484.99999358437304 434.9571781482165C499.16666064406917 435.27592815705964 504.8333274679476 404.8459273128325 518.9999945276437 400.27717718608045C533.1666615873398 395.70842705932847 538.8333284112182 414.1959275722319 552.9999954709143 413.0271775398069C567.1666625306103 411.85842750738203 579.9166628843368 398.4921771365588 586.9999964141849 394.6671770304408 " transform="rotate(51, 400, 400)"></path>
        <path d="M223.9999859619141 412.2608687151566C230.6666528135358 402.86086845437006 242.66665314645485 365.6408674217662 255.99998684969822 367.140867463381C269.3333205529416 368.6408675049959 274.66665403423895 414.1608687678688 287.99998773748234 419.4608689149081C301.3333214407257 424.7608690619473 306.6666549220231 392.3808681636208 319.99998862526644 392.58086816916943C333.33332232850984 392.7808681747181 338.6666558098072 423.72086903309435 351.99998951305054 420.4208689415416C365.33332321629393 417.1208688499889 370.6666566975913 378.4408677768798 383.9999904008347 376.7408677297163C397.3333241040781 375.04086768255274 402.66665758537545 407.66086858753766 415.99999128861884 412.2608687151566C429.3333249918621 416.86086884277563 434.66665847315954 394.52086822299134 447.9999921764029 398.8208683422873C461.3333258796463 403.1208684615833 466.6666593609436 432.6008692794544 479.99999306418704 432.90086928777737C493.33332676743044 433.2008692961004 498.6666602487278 404.5608685015336 511.99999395197113 400.2608683822376C525.3333276552146 395.96086826294163 530.666661136512 413.3608687456742 543.9999948397553 412.2608687151566C557.3333285429986 411.16086868463907 569.3333288759177 398.5808683356289 575.9999957275394 394.98086823575323 " transform="rotate(48, 400, 400)"></path>
        <path d="M234.99998588562016 411.49456370520363C241.2499860590155 402.6820634607162 252.49998637112708 367.78831249265005 264.99998671791775 369.194562531664C277.4999870647084 370.60081257067793 282.49998720342467 413.2758137546213 294.99998755021534 418.2445638924706C307.499987897006 423.2133140303199 312.4999880357223 392.85706318813874 324.999988382513 393.0445631933406C337.49998872930365 393.23206319854245 342.49998886801995 422.2383140032702 354.9999892148106 419.14456391743954C367.4999895616013 416.0508138316088 372.49998970031754 379.7883128255691 384.9999900471082 378.1945627813533C397.4999903938989 376.60081273713746 402.49999053261513 407.18206358556085 414.9999908794058 411.49456370520363C427.49999122619647 415.8070638248464 432.4999913649127 394.86331324379864 444.9999917117034 398.89456335563864C457.49999205849406 402.92581346747863 462.4999921972103 430.5633142342328 474.999992544001 430.8445642420356C487.4999928907917 431.12581424983836 492.49999302950795 404.275813504932 504.9999933762987 400.244563393092C517.4999937230893 396.213313281252 522.4999938618056 412.52581373381383 534.9999942085963 411.49456370520363C547.4999945553868 410.4633136765934 558.7499948674986 398.6695633493964 564.9999950408939 395.2945632557629 " transform="rotate(45, 400, 400)"></path>
        <path d="M245.9999858093262 410.72826823199375C251.83331930449518 402.5032680038055 262.33331959579937 369.9357671002771 273.9999865861373 371.2482671366901C285.66665357647526 372.5607671731031 290.33332037261044 412.3907682781169 301.9999873629484 417.02826840677625C313.6666543532864 421.6657685354356 318.3333211494216 393.33326774939985 329.9999881397595 393.5082677542549C341.66665513009747 393.68326775911 346.33332192623266 420.7557685101892 357.9999889165706 417.8682684300806C369.66665590690855 414.9807683499719 374.3333227030438 381.13576741100155 385.99998969338174 379.64826736973345C397.6666566837197 378.16076732846534 402.3333234798548 406.70326812032715 413.9999904701928 410.72826823199375C425.6666574605308 414.75326834366035 430.33332425666595 395.2057678013491 441.99999124700395 398.9682679057331C453.66665823734184 402.7307680101171 458.3333250334771 428.52576872575435 469.999992023815 428.78826873303694C481.66665901415297 429.05076874031954 486.33332581028816 403.9907680450736 497.99999280062616 400.2282679406896C509.6666597909641 396.4657678363056 514.3333265870992 411.6907682586966 525.9999935774372 410.72826823199375C537.6666605677751 409.7657682052909 548.1666608590793 398.758267899907 553.9999943542483 395.60826781251575 " transform="rotate(42, 400, 400)"></path>
        <path d="M256.99998573303225 409.9619555926462C262.41665254997486 402.3244553807571 272.1666528204716 372.0832045417664 282.9999864543569 373.3019545755785C293.8333200882421 374.52070460939063 298.1666535417962 411.50570563547484 308.99998717568144 415.8119557549442C319.83332080956666 420.1182058744136 324.1666542631208 393.8094551445233 334.999987897006 393.9719551490316C345.8333215308913 394.1344551535399 350.1666549844454 419.27320585097056 360.99998861833063 416.591955776584C371.8333222522159 413.9107057021974 376.16665570577 382.48320483029624 386.99998933965526 381.1019547919759C397.8333229735405 379.7207047536555 402.1666564270946 406.2244554889558 412.9999900609798 409.9619555926462C423.83332369486504 413.6994556963366 428.1666571484192 395.5482051927619 438.9999907823044 399.0419552896899C449.83332441618967 402.53570538661785 454.16665786974374 426.48820605113815 464.999991503629 426.73195605790056C475.8333251375143 426.975706064663 480.1666585910683 403.70570541907745 490.99999222495364 400.2119553221495C501.83332585883886 396.7182052252215 506.166659312393 410.85570561744174 516.9999929462782 409.9619555926462C527.8333265801634 409.06820556785067 537.5833268506601 398.84695528427994 542.9999936676028 395.9219552031309 " transform="rotate(39, 400, 400)"></path>
        <path d="M267.9999856567383 409.1956505826932C272.99998579545456 402.1456503871032 281.9999860451438 374.2306496126503 291.99998632257643 375.35564964386145C301.9999866000089 376.48064967507264 305.99998671098194 410.6206506222273 315.9999869884145 414.5956507325067C325.99998726584704 418.57065084278616 329.99998737682006 394.2856501690413 339.99998765425255 394.43565017320276C349.9999879316851 394.58565017736424 353.9999880426581 417.7906508211464 363.99998832009067 415.3156507524819C373.9999885975232 412.84065068381733 377.9999887084962 383.8306498789855 387.9999889859287 382.5556498436129C397.9999892633613 381.28064980824024 401.9999893743343 405.74565048697895 411.99998965176684 409.1956505826932C421.9999899291994 412.6456506784074 425.9999900401724 395.8906502135692 435.9999903176049 399.11565030304115C445.99999059503745 402.34065039251317 449.99999070601046 424.4506510059165 459.999990983443 424.6756510121587C469.99999126087556 424.90065101840094 473.9999913718486 403.4206504224759 483.9999916492811 400.19565033300387C493.9999919267137 396.9706502435319 497.99999203768664 410.02065060558135 507.9999923151192 409.1956505826932C517.9999925925517 408.370650559805 526.999992842241 398.9356502980474 531.9999929809572 396.2356502231406 " transform="rotate(36, 400, 400)"></path>
        <path d="M279.0000008392334 408.42934557274015C283.58333429972333 401.9668453934494 291.8333345286052 376.3780946835342 301.000001449585 377.4093447121444C310.1666683705648 378.44059474075465 313.8333351389567 409.7355956089798 323.0000020599366 413.37934571006923C332.16666898091637 417.0230958111587 335.83333574930833 394.7618451935592 345.00000267028815 394.8993451973739C354.166669591268 395.0368452011886 357.83333635965994 416.3080957913223 367.00000328063976 414.03934572837977C376.1666702016196 411.77059566543727 379.8333369700115 385.1780949276748 389.0000038909913 384.0093448952499C398.16667081197113 382.84059486282496 401.8333375803631 405.2668454850021 411.0000045013429 408.42934557274015C420.16667142232274 411.59184566047816 423.8333381907147 396.2330952343765 433.00000511169446 399.18934531639246C442.1666720326743 402.1455953984085 445.83333880106625 422.4130959606949 455.00000572204607 422.6193459664169C464.1666726430259 422.82559597213896 467.8333394114178 403.13559542587427 477.0000063323977 400.1793453438583C486.1666732533775 397.22309526184233 489.83334002176946 409.18559559372096 499.0000069427492 408.42934557274015C508.166673863729 407.6730955517593 516.4166740926108 399.02434531181484 521.0000075531008 396.5493452431503 " transform="rotate(33, 400, 400)"></path>
        <path d="M290.00000076293946 407.66303865543847C294.16666754520304 401.78803849244684 301.66666775327747 378.5255378470694 310.00000131780456 379.46303787307875C318.33333488233166 380.400537899088 321.6666683081425 408.8505386883836 330.0000018726696 412.1630387802831C338.33333543719675 415.47553887218265 341.6666688630076 395.23803831072854 350.0000024275347 395.36303831419644C358.3333359920618 395.48803831766435 361.66666941787264 414.8255388541495 370.0000029823998 412.7630387969291C378.3333365469269 410.70053873970863 381.66666997273774 386.52553806901545 390.00000353726483 385.4630380395382C398.3333371017919 384.40053801006104 401.66667052760283 404.78803857567664 410.0000040921299 407.66303865543847C418.333337656657 410.5380387352003 421.6666710824679 396.57553834783516 430.00000464699497 399.26303842239514C438.3333382115221 401.9505384969551 441.6666716373329 420.3755390081246 450.00000520186006 420.56303901332643C458.3333387663872 420.7505390185283 461.666672192198 402.8505385219241 470.00000575672516 400.1630384473641C478.3333393212523 397.47553837280407 481.6666727470631 408.35053867451194 490.0000063115902 407.66303865543847C498.3333398761173 406.975538636365 505.8333400841917 399.11303841823366 510.00000686645524 396.86303835581134 " transform="rotate(30, 400, 400)"></path>
        <path d="M301.00000068664554 406.89673746018275C304.75000079068275 401.60923731349027 311.5000009779497 380.67298673265054 319.00000118602406 381.51673675605895C326.5000013940985 382.3604867794673 329.5000014773283 407.9654874898333 337.00000168540265 410.9467375725429C344.5000018934771 413.9279876552525 347.5000019767068 395.71423714994376 355.00000218478124 395.82673715306487C362.50000239285566 395.93923715618604 365.5000024760854 413.3429876390227 373.00000268415977 411.48673758752426C380.5000028922342 409.63048753602584 383.50000297546393 387.872986932402 391.00000318353835 386.91673690587254C398.5000033916127 385.960486879343 401.5000034748425 404.30923738839704 409.00000368291694 406.89673746018275C416.5000038909913 409.4842375319684 419.5000039742211 396.91798718333973 427.00000418229547 399.3367372504437C434.5000043903699 401.7554873175477 437.50000447359963 418.33798777760023 445.00000468167406 418.5067377822819C452.5000048897485 418.6754877869636 455.5000049729782 402.56548734001973 463.00000518105264 400.14673727291574C470.50000538912707 397.72798720581176 473.5000054723568 407.51548747734887 481.0000056804312 406.89673746018275C488.5000058885056 406.27798744301657 495.25000607577255 399.20173724669837 499.0000061798097 397.1767371905183 " transform="rotate(27, 400, 400)"></path>
        <path d="M312.00000061035155 406.13043626492697C315.33333403616246 401.4304361345337 321.3333342026219 382.8204356182317 328.0000010542436 383.57043563903915C334.6666679058653 384.32043565984657 337.333334646514 407.08043629128304 344.0000014981357 409.7304363648027C350.6666683497574 412.3804364383223 353.3333350904061 396.190435989159 360.0000019420278 396.29043599193335C366.6666687936495 396.3904359947077 369.33333553429816 411.8604364238958 376.0000023859198 410.2104363781194C382.6666692375415 408.56043633234304 385.3333359781902 389.22043579578855 392.0000028298119 388.37043577220675C398.6666696814336 387.520435748625 401.33333642208225 403.8304362011175 408.00000327370395 406.13043626492697C414.6666701253256 408.43043632873645 417.3333368659743 397.2604360188443 424.000003717596 399.4104360784923C430.6666705692177 401.5604361381403 433.33333730986635 416.30043654707583 440.00000416148805 416.4504365512373C446.66667101310975 416.6004365553988 449.3333377537584 402.28043615811544 456.0000046053801 400.13043609846744C462.6666714570018 397.98043603881945 465.3333381976505 406.68043628018575 472.0000050492722 406.13043626492697C478.66667190089385 405.5804362496682 484.6666720673534 399.2904360751631 488.0000054931642 397.4904360252252 " transform="rotate(24, 400, 400)"></path>
        <path d="M323.0000005340576 405.3641303012996C325.9166672816421 401.2516301872055 331.1666674272942 384.9678797354413 337.0000009224632 385.62412975364776C342.83333441763216 386.2803797718543 345.1666678156997 406.19538032436117 351.0000013108687 408.5141303886909C356.8333348060377 410.83288045302055 359.16666820410535 396.66663006000266 365.0000016992743 396.7541300624302C370.8333351944433 396.8416300648577 373.16666859251086 410.37788044039735 379.00000208767983 408.934130400343C384.8333355828488 407.4903803602887 387.1666689809164 390.5678798908035 393.0000024760854 389.82412987016943C398.83333597125437 389.0803798495354 401.16666936932194 403.3516302454663 407.00000286449097 405.3641303012996C412.83333635965994 407.3766303571329 415.1666697577275 397.6028800859773 421.0000032528965 399.4841301381693C426.83333674806545 401.3653801903613 429.1666701461331 414.2628805481799 435.00000364130204 414.3941305518212C440.833337136471 414.5253805554625 443.16667053453864 401.9953802078395 449.0000040297076 400.11413015564756C454.8333375248766 398.23288010345556 457.16667092294415 405.84538031465104 463.0000044181131 405.3641303012996C468.8333379132821 404.8828802879482 474.0833380589342 399.3791301352562 477.0000048065187 397.80413009156064 " transform="rotate(21, 400, 400)"></path>
        <path d="M334.0000004577637 404.5978262450209C336.5000005271218 401.07282614722595 341.00000065196645 387.11532575999945 346.00000079068275 387.6778257756051C351.000000929399 388.24032579121064 353.0000009848855 405.31032626478793 358.0000011236018 407.2978263199277C363.00000126231805 409.28532637506737 365.00000131780456 397.1428260381949 370.0000014565208 397.21782604027567C375.0000015952371 397.2928260423564 377.00000165072356 408.8953263642475 382.00000178943986 407.6578263299152C387.00000192815617 406.420326295583 389.0000019836426 391.9153258931671 394.00000212235886 391.27782587548074C399.00000226107517 390.64032585779444 401.0000023165617 402.8728261971638 406.0000024552779 404.5978262450209C411.0000025939942 406.322826292878 413.00000264948073 397.9453260604589 418.000002788197 399.5578261051949C423.0000029269132 401.17032614993093 425.0000029823998 412.22532645663256 430.00000312111604 412.33782645975367C435.0000032598323 412.4503264628748 437.00000331531885 401.71032616491226 442.0000034540351 400.09782612017625C447.00000359275134 398.48532607544024 449.00000364823785 405.01032625646496 454.00000378695415 404.5978262450209C459.0000039256704 404.1853262335768 463.50000405051503 399.46782610269804 466.00000411987315 398.1178260652446 " transform="rotate(18, 400, 400)"></path>
        <path d="M344.99999656677244 403.8315212350679C347.08332995790425 400.89402115357206 350.83333006194147 389.26277083088337 354.99999684420504 389.731520843888C359.16666362646856 390.20027085689264 360.833330339374 404.42527125154044 364.99999712163753 406.0815212974902C369.1666639039011 407.73777134343993 370.8333306168065 397.61902106271293 374.9999973990701 397.6815210644469C379.16666418133366 397.74402106618084 380.83333089423905 407.4127713344234 384.99999767650263 406.3815213058132C389.16666445876615 405.3502712772029 390.8333311716716 393.2627709418564 394.9999979539351 392.73152092711774C399.1666647361987 392.20027091237915 400.83333144910415 402.39402119518695 404.9999982313677 403.8315212350679C409.16666501363125 405.2690212749488 410.8333317265367 398.2877710812662 414.9999985088002 399.6315211185462C419.1666652910638 400.9752711558262 420.8333320039692 410.18777141141095 424.99999878623277 410.2815214140119C429.16666556849634 410.3752714166128 430.83333228140174 401.4252711683107 434.9999990636653 400.0815211310307C439.1666658459289 398.73777109375067 440.8333325588343 404.17527124460463 444.9999993410978 403.8315212350679C449.1666661233614 403.4877712255311 452.9166662273986 399.55652111646543 454.99999961853035 398.4315210852543 " transform="rotate(15, 400, 400)"></path>
        <path d="M355.9999964904785 403.0652181324635C357.66666320338396 400.71521806726685 360.6666632866137 391.41021780911586 363.99999671242455 391.7852178195196C367.3333301382354 392.1602178299233 368.66666350855974 403.5402181456415 371.9999969343706 404.86521818240135C375.33333036018144 406.1902182191611 376.6666637305058 398.0952179945795 379.9999971563166 398.1452179959667C383.3333305821275 398.19521799735384 384.6666639524518 405.93021821194793 387.9999973782626 405.1052181890597C391.3333308040735 404.28021816617155 392.66666417439785 394.61021789789424 395.99999760020864 394.1852178861034C399.33333102601955 393.7602178743125 400.6666643963439 401.9152181005587 403.9999978221547 403.0652181324635C407.33333124796553 404.21521816436825 408.6666646182899 398.63021800942215 411.9999980441007 399.7052180392461C415.33333146991157 400.78021806907014 416.6666648402359 408.1502182735379 419.99999826604676 408.22521827561866C423.3333316918576 408.3002182776994 424.66666506218195 401.1402180790577 427.9999984879928 400.06521804923375C431.33333191380365 398.9902180194097 432.666665284128 403.3402181400929 435.99999870993884 403.0652181324635C439.33333213574963 402.7902181248341 442.3333322189794 399.64521803758157 443.9999989318849 398.7452180126126 " transform="rotate(12, 400, 400)"></path>
        <path d="M366.9999964141846 402.2989150298591C368.2499964488636 400.5364149809616 370.499996511286 393.55766478734836 372.9999965806441 393.83891479515114C375.49999665000223 394.1201648029539 376.49999667774546 402.6551650397426 378.99999674710364 403.6489150673125C381.49999681646176 404.6426650948823 382.49999684420504 398.5714149264461 384.9999969135631 398.60891492748647C387.4999969829213 398.64641492852684 388.4999970106645 404.44766508947237 390.9999970800227 403.82891507230624C393.4999971493808 403.2101650551401 394.49999717712404 395.95766485393216 396.99999724648217 395.638914845089C399.49999731584035 395.32016483624585 400.4999973435836 401.43641500593054 402.9999974129417 402.2989150298591C405.4999974822998 403.16141505378766 406.4999975100431 398.9726649375781 408.9999975794012 399.77891495994606C411.49999764875935 400.5851649823141 412.49999767650263 406.1126651356649 414.99999774586075 406.1689151372255C417.4999978152189 406.22516513878605 418.49999784296216 400.85516498980473 420.9999979123203 400.04891496743676C423.4999979816784 399.2426649450688 424.4999980094217 402.5051650355811 426.9999980787798 402.2989150298591C429.49999814813793 402.09266502413703 431.74999821056025 399.73391495869765 432.99999824523934 399.0589149399709 " transform="rotate(9, 400, 400)"></path>
        <path d="M378.0000001525879 401.5326081125574C378.8333335090406 400.3576080799591 380.3333335506555 395.70510795088364 382.0000002635609 395.8926079560855C383.66666697646633 396.08010796128735 384.3333336616285 401.77010811914647 386.0000003745339 402.43260813752636C387.66666708743935 403.09510815590625 388.3333337726015 399.04760804361547 390.0000004855069 399.07260804430905C391.66666719841237 399.09760804500263 392.33333388357454 402.96510815229965 394.00000059647994 402.55260814085557C395.6666673093854 402.14010812941143 396.33333399454756 397.3051079952728 398.00000070745295 397.09260798937737C399.6666674203584 396.88010798348193 400.3333341055206 400.95760809660504 402.000000818426 401.5326081125574C403.6666675313314 402.1076081285098 404.33333421649354 399.31510805103676 406.000000929399 399.85260806594874C407.66666764230445 400.3901080808607 408.33333432746656 404.07510818309464 410.000001040372 404.112608184135C411.66666775327747 404.1501081851754 412.3333344384396 400.57010808585454 414.00000115134503 400.03260807094256C415.6666678642505 399.4951080560305 416.3333345494126 401.67010811637215 418.00000126231805 401.5326081125574C419.66666797522345 401.3951081087427 421.16666801683834 399.82260806511647 422.00000137329107 399.372608052632 " transform="rotate(6, 400, 400)"></path>
        <path d="M389.00000007629393 400.76630500995304C389.4166667545203 400.1788049936539 390.1666667753277 397.85255492911614 391.00000013178044 397.94630493171707C391.83333348823317 398.040054934318 392.1666668308143 400.88505501324755 393.00000018726695 401.2163050224375C393.8333335437197 401.54755503162744 394.16666688630073 399.52380497548205 395.00000024275346 399.53630497582884C395.8333335992062 399.54880497617563 396.1666669417873 401.48255502982414 397.00000029823997 401.2763050241021C397.8333336546927 401.07005501838006 398.16666699727375 398.6525549513107 399.0000003537265 398.546304948363C399.8333337101792 398.4400549454153 400.16666705276026 400.47880500197687 401.000000409213 400.76630500995304C401.8333337656657 401.0538050179292 402.16666710824677 399.6575549791927 403.0000004646995 399.9263049866487C403.8333338211522 400.1950549941047 404.1666671637333 402.03755504522167 405.000000520186 402.05630504574185C405.83333387663873 402.07505504626204 406.1666672192198 400.2850549966016 407.0000005756725 400.01630498914557C407.83333393212524 399.7475549816896 408.1666672747063 400.8350550118604 409.000000631159 400.76630500995304C409.8333339876117 400.6975550080457 410.5833340084192 399.91130498623255 411.00000068664554 399.6863049799903 " transform="rotate(3, 400, 400)"></path>
    </g>
</svg>